P3
# Created by GIMP version 2.10.18 PNM plug-in
64 48
255
0
0
33
0
0
33
0
0
33
0
0
33
0
0
33
0
0
33
0
0
33
0
0
33
0
0
33
0
0
33
0
0
33
0
0
33
0
0
33
0
0
33
0
0
33
0
0
34
0
1
44
0
2
51
0
2
57
0
3
62
0
3
64
0
3
64
0
3
64
0
3
64
0
3
64
0
3
64
0
3
64
0
3
64
0
3
64
0
3
64
0
3
64
0
3
64
0
3
64
0
3
64
0
3
63
0
3
61
0
2
58
0
2
54
0
1
50
0
1
45
0
0
39
0
0
33
0
0
33
0
0
33
0
0
33
0
0
33
0
0
33
0
0
33
0
0
33
0
0
33
0
0
33
0
0
33
0
0
33
0
0
33
0
0
33
0
0
33
0
0
33
0
0
33
0
0
33
0
0
33
0
0
33
0
0
33
0
0
33
0
0
33
0
0
33
0
0
33
0
0
33
0
0
33
0
0
33
0
0
33
0
0
33
0
0
33
0
0
33
0
0
33
0
0
33
0
0
33
0
0
33
0
1
45
0
2
55
0
3
63
0
3
64
0
3
64
0
3
64
0
3
64
0
3
64
0
3
64
0
3
64
0
3
64
0
3
64
0
3
64
0
3
64
0
3
64
0
3
64
0
3
64
0
3
64
0
3
64
0
3
64
0
3
64
0
3
64
0
3
64
0
3
64
0
3
64
0
3
64
0
3
64
0
3
64
0
3
62
0
2
57
0
2
51
0
1
43
0
0
34
0
0
33
0
0
33
0
0
33
0
0
33
0
0
33
0
0
33
0
0
33
0
0
33
0
0
33
0
0
33
0
0
33
0
0
33
0
0
33
0
0
33
0
0
33
0
0
33
0
0
33
0
0
33
0
0
33
0
0
33
0
0
33
0
0
33
0
0
33
0
0
33
0
0
33
0
0
33
0
0
33
0
0
33
0
0
34
0
1
49
0
3
61
0
3
64
0
3
64
0
3
64
0
3
64
0
3
64
0
3
64
0
3
64
0
3
64
0
3
64
0
3
64
0
3
64
0
3
64
0
3
64
0
3
64
0
3
64
0
3
64
0
3
64
0
3
64
0
3
64
0
3
64
0
3
64
0
3
64
0
3
64
0
3
64
0
3
64
0
3
64
0
3
64
0
3
64
0
3
64
0
3
64
0
3
64
0
3
64
0
3
63
0
2
56
0
1
46
0
0
34
0
0
33
0
0
33
0
0
33
0
0
33
0
0
33
0
0
33
0
0
33
0
0
33
0
0
33
0
0
33
0
0
33
0
0
33
0
0
33
0
0
33
0
0
33
0
0
33
0
0
33
0
0
33
0
0
33
0
0
33
0
0
33
0
0
33
0
0
33
0
0
33
0
1
46
0
3
61
0
3
64
0
3
64
0
3
64
0
3
64
0
3
64
0
3
64
0
3
64
0
3
64
0
3
64
0
3
64
0
3
64
0
3
64
0
3
64
0
3
64
0
3
67
0
4
73
0
5
78
0
6
82
0
7
84
0
7
84
0
6
84
0
6
81
0
5
78
0
4
73
0
3
65
0
3
64
0
3
64
0
3
64
0
3
64
0
3
64
0
3
64
0
3
64
0
3
64
0
3
64
0
3
64
0
3
64
0
3
64
0
3
63
0
2
53
0
0
39
0
0
33
0
0
33
0
0
33
0
0
33
0
0
33
0
0
33
0
0
33
0
0
33
0
0
33
0
0
33
0
0
33
0
0
33
0
0
33
0
0
33
0
0
33
0
0
33
0
0
33
0
0
33
0
0
33
0
0
33
0
0
36
0
2
56
0
3
64
0
3
64
0
3
64
0
3
64
0
3
64
0
3
64
0
3
64
0
3
64
0
3
64
0
3
64
0
3
64
0
3
64
0
3
64
0
3
66
0
5
78
0
7
86
0
8
91
0
8
91
0
8
91
0
8
91
0
9
95
0
10
101
0
11
102
0
10
98
0
8
91
0
8
91
0
8
91
0
7
85
0
5
76
0
3
65
0
3
64
0
3
64
0
3
64
0
3
64
0
3
64
0
3
64
0
3
64
0
3
64
0
3
64
0
3
64
0
3
64
0
3
64
0
2
55
0
0
40
0
0
33
0
0
33
0
0
33
0
0
33
0
0
33
0
0
33
0
0
33
0
0
33
0
0
33
0
0
33
0
0
33
0
0
33
0
0
33
0
0
33
0
0
33
0
0
33
0
0
33
0
1
41
0
3
61
0
3
64
0
3
64
0
3
64
0
3
64
0
3
64
0
3
64
0
3
64
0
3
64
0
3
64
0
3
64
0
3
64
0
3
64
0
4
69
0
6
82
0
8
91
0
8
91
0
8
91
0
8
91
0
8
91
0
9
95
0
13
109
0
15
117
9
43
145
88
127
157
1
19
128
0
13
113
0
10
99
0
8
91
0
8
91
0
8
91
0
8
90
0
6
80
0
3
67
0
3
64
0
3
64
0
3
64
0
3
64
0
3
64
0
3
64
0
3
64
0
3
64
0
3
64
0
3
64
0
3
64
0
3
64
0
2
53
0
0
35
0
0
33
0
0
33
0
0
33
0
0
33
0
0
33
0
0
33
0
0
33
0
0
33
0
0
33
0
0
33
0
0
33
0
0
33
0
0
33
0
0
33
0
1
44
0
3
63
0
3
64
0
3
64
0
3
64
0
3
64
0
3
64
0
3
64
0
3
64
0
3
64
0
3
64
0
3
64
0
3
64
0
4
68
0
6
83
0
8
91
0
8
91
0
8
91
0
8
91
0
8
91
0
8
91
0
10
100
0
14
114
0
14
116
1
23
139
89
145
164
127
165
138
54
76
161
0
18
125
0
14
115
0
11
104
0
8
91
0
8
91
0
8
91
0
8
91
0
8
90
0
6
79
0
3
65
0
3
64
0
3
64
0
3
64
0
3
64
0
3
64
0
3
64
0
3
64
0
3
64
0
3
64
0
3
64
0
3
64
0
3
61
0
1
43
0
0
33
0
0
33
0
0
33
0
0
33
0
0
33
0
0
33
0
0
33
0
0
33
0
0
33
0
0
33
0
0
33
0
0
33
0
1
44
0
3
63
0
3
64
0
3
64
0
3
64
0
3
64
0
3
64
0
3
64
0
3
64
0
3
64
0
3
64
0
3
64
0
3
66
0
6
80
0
8
91
0
8
91
0
8
91
0
8
91
0
8
91
0
8
91
0
8
91
0
11
105
0
14
115
0
15
118
0
21
143
106
146
157
133
187
163
151
192
141
135
207
152
44
74
160
0
16
122
0
14
115
0
12
105
0
8
91
0
8
91
0
8
91
0
8
91
0
8
91
0
7
89
0
5
74
0
3
64
0
3
64
0
3
64
0
3
64
0
3
64
0
3
64
0
3
64
0
3
64
0
3
64
0
3
64
0
3
64
0
3
64
0
1
51
0
0
33
0
0
33
0
0
33
0
0
33
0
0
33
0
0
33
0
0
33
0
0
33
0
0
33
0
0
33
0
1
40
0
3
63
0
3
64
0
3
64
0
3
64
0
3
64
0
3
64
0
3
64
0
3
64
0
3
64
0
3
64
0
3
64
0
5
76
0
8
89
0
8
91
0
8
91
0
8
91
0
8
91
0
8
91
0
8
91
0
9
94
0
13
109
0
14
116
0
17
126
1
21
137
0
35
165
130
193
154
101
228
174
86
218
189
147
205
127
41
76
173
1
23
142
0
18
126
0
14
115
0
11
103
0
8
91
0
8
91
0
8
91
0
8
91
0
8
91
0
8
91
0
6
83
0
3
67
0
3
64
0
3
64
0
3
64
0
3
64
0
3
64
0
3
64
0
3
64
0
3
64
0
3
64
0
3
64
0
3
64
0
2
55
0
0
33
0
0
33
0
0
33
0
0
33
0
0
33
0
0
33
0
0
33
0
0
33
0
0
35
0
3
61
0
3
64
0
3
64
0
3
64
0
3
64
0
3
64
0
3
64
0
3
64
0
3
64
0
3
64
0
4
72
0
7
87
0
8
91
0
8
91
0
8
91
0
8
91
0
8
91
0
8
91
0
9
94
0
11
105
0
14
115
0
17
126
1
20
135
1
22
138
1
29
153
37
71
180
139
221
143
167
175
104
184
165
121
109
151
191
28
66
188
2
33
160
1
22
139
1
20
132
0
15
118
0
11
105
0
8
91
0
8
91
0
8
91
0
8
91
0
8
91
0
8
91
0
8
89
0
4
73
0
3
64
0
3
64
0
3
64
0
3
64
0
3
64
0
3
64
0
3
64
0
3
64
0
3
64
0
3
64
0
3
64
0
2
55
0
0
33
0
0
33
0
0
33
0
0
33
0
0
33
0
0
33
0
0
33
0
2
54
0
3
64
0
3
64
0
3
64
0
3
64
0
3
64
0
3
64
0
3
64
0
3
64
0
4
70
0
7
84
0
8
91
0
8
91
0
8
91
0
8
91
0
9
94
0
10
99
0
11
104
0
13
110
0
14
115
0
17
123
6
43
151
1
29
153
2
31
157
53
75
169
3
45
178
20
65
195
154
210
140
118
52
11
28
0
0
166
183
83
141
214
143
113
139
156
24
55
175
1
29
152
1
24
142
0
16
120
0
12
109
0
9
94
0
8
91
0
8
91
0
8
91
0
8
91
0
8
91
0
8
91
0
6
82
0
3
66
0
3
64
0
3
64
0
3
64
0
3
64
0
3
64
0
3
64
0
3
64
0
3
64
0
3
64
0
3
64
0
2
54
0
0
33
0
0
33
0
0
33
0
0
33
0
0
33
0
1
42
0
3
64
0
3
64
0
3
64
0
3
64
0
3
64
0
3
64
0
3
64
0
4
69
0
6
83
0
8
91
0
8
91
0
10
98
0
11
105
0
13
110
0
14
114
0
14
115
0
14
115
0
14
115
0
15
118
1
19
131
1
28
150
110
174
161
101
154
178
108
154
169
143
187
134
131
191
153
101
139
192
130
165
181
161
130
36
104
31
2
193
121
51
125
236
153
125
228
153
121
184
166
85
131
176
117
174
159
0
26
156
0
16
122
0
14
114
0
12
105
0
9
95
0
8
91
0
8
91
0
8
91
0
8
91
0
8
91
0
7
88
0
4
71
0
3
64
0
3
64
0
3
64
0
3
64
0
3
64
0
3
64
0
3
64
0
3
64
0
3
64
0
3
64
0
1
49
0
0
33
0
0
33
0
0
33
0
0
33
0
2
58
0
3
64
0
3
64
0
3
64
0
3
64
0
3
64
0
4
68
0
6
83
0
8
91
0
8
93
0
11
104
0
15
118
0
15
118
0
14
115
0
14
115
0
14
115
0
14
115
0
14
116
1
18
127
1
21
136
1
23
141
2
37
168
137
183
148
138
94
26
140
223
138
114
233
163
146
210
125
180
158
73
51
172
217
193
167
107
233
126
23
176
170
94
110
232
166
106
230
170
135
178
162
151
131
78
136
175
154
14
50
169
1
22
138
0
17
123
0
14
115
0
14
115
0
13
110
0
11
104
0
10
97
0
8
91
0
8
91
0
8
91
0
8
91
0
6
80
0
3
65
0
3
64
0
3
64
0
3
64
0
3
64
0
3
64
0
3
64
0
3
64
0
3
64
0
3
64
0
1
41
0
0
33
0
0
33
0
1
43
0
3
64
0
3
64
0
3
64
0
3
64
0
3
65
0
6
79
0
8
90
0
8
91
0
10
99
0
15
117
73
113
150
60
97
161
1
26
146
1
23
140
1
20
133
1
18
129
1
19
131
1
21
137
1
21
137
1
23
141
2
34
162
52
84
184
122
154
181
165
183
150
119
223
162
105
230
171
129
212
148
178
178
123
64
199
207
92
206
192
118
205
157
114
225
168
99
227
176
95
224
180
98
222
179
177
147
78
141
196
138
45
61
177
1
26
146
1
21
137
0
18
126
0
14
115
0
14
115
0
14
115
0
14
115
0
14
114
0
12
108
0
10
101
0
8
92
0
8
91
0
7
88
0
4
72
0
3
64
0
3
64
0
3
64
0
3
64
0
3
64
0
3
64
0
3
64
0
3
64
0
2
60
0
0
34
0
0
33
0
2
56
0
3
64
0
3
64
0
3
64
0
4
68
0
7
87
0
8
91
0
8
91
0
11
104
0
14
116
1
21
136
105
163
166
126
205
162
54
77
188
58
90
172
92
141
167
28
52
165
1
28
151
1
28
151
1
28
152
2
37
167
107
147
167
141
202
140
154
203
121
98
218
178
94
224
181
95
224
180
93
223
182
83
216
191
74
209
198
75
210
198
84
217
190
88
220
187
93
223
182
93
223
182
100
228
175
114
233
163
127
226
151
121
144
171
34
64
164
1
22
139
1
21
137
1
19
132
0
16
120
0
14
115
0
14
115
0
14
115
0
14
115
0
14
115
0
14
113
0
11
105
0
8
93
0
8
91
0
6
83
0
3
67
0
3
64
0
3
64
0
3
64
0
3
64
0
3
64
0
3
64
0
3
64
0
1
49
0
0
33
0
3
63
0
3
64
0
3
64
0
4
71
0
8
89
0
8
91
0
8
91
0
12
105
0
14
115
0
18
126
1
30
155
118
178
165
141
87
15
156
206
117
135
214
152
155
157
108
96
147
176
51
70
172
2
35
165
3
38
170
1
51
187
128
147
162
128
220
154
112
232
165
100
227
175
95
224
180
93
223
182
88
220
187
83
216
191
76
211
197
76
211
197
83
216
191
84
217
190
90
221
185
93
223
182
102
229
173
111
232
165
126
229
152
141
166
127
13
58
183
1
30
156
1
25
144
1
22
139
1
21
137
1
20
133
1
19
129
1
18
129
1
19
132
1
21
136
1
25
144
56
85
150
0
16
121
0
10
100
0
8
91
0
8
90
0
5
78
0
3
65
0
3
64
0
3
64
0
3
64
0
3
64
0
3
64
0
3
62
0
0
35
0
3
64
0
3
64
0
4
68
0
8
89
0
8
91
0
8
91
0
12
105
0
14
115
0
16
122
6
44
160
93
129
170
123
162
178
177
166
124
153
200
134
103
229
172
116
234
161
134
214
135
109
145
176
4
51
187
5
53
190
107
137
176
145
233
134
119
235
158
112
233
164
103
229
172
100
227
175
93
223
182
85
218
189
84
217
190
78
212
196
76
211
197
78
213
195
83
217
191
86
219
188
94
223
181
109
231
167
122
234
154
129
237
148
141
200
140
61
88
184
3
37
169
1
31
158
1
30
156
1
30
156
2
35
164
66
95
169
2
34
161
1
31
156
0
37
169
116
170
162
129
186
155
32
59
149
0
15
119
0
12
106
0
8
91
0
8
91
0
7
87
0
4
71
0
3
64
0
3
64
0
3
64
0
3
64
0
3
64
0
1
49
0
3
64
0
3
64
0
7
85
0
8
91
0
8
91
0
12
105
0
16
120
1
19
130
1
29
152
131
149
153
137
221
145
140
203
145
81
214
193
93
223
182
98
226
177
116
232
162
143
216
122
143
198
147
6
73
208
63
98
204
152
201
136
136
238
142
130
236
146
125
236
152
121
232
158
103
229
172
95
225
180
85
218
189
84
217
190
78
212
195
76
211
197
76
211
197
77
212
196
83
216
191
100
226
177
172
158
85
186
123
53
150
228
121
157
207
136
0
68
202
4
45
180
3
41
175
0
45
174
28
49
180
43
87
194
140
174
116
109
165
169
95
125
173
82
108
185
155
197
115
131
193
165
43
50
169
1
20
133
0
14
115
0
12
109
0
8
92
0
8
91
0
8
91
0
6
79
0
3
64
0
3
64
0
3
64
0
3
64
0
2
60
0
3
64
0
4
73
0
8
91
0
8
93
0
15
113
0
21
139
0
24
145
1
29
154
53
77
172
131
200
150
103
229
172
97
225
178
87
219
188
86
218
189
90
221
185
157
186
126
186
95
18
166
192
140
16
102
223
118
154
186
167
231
114
162
222
111
159
170
81
162
152
74
169
140
66
132
222
142
124
216
159
87
219
188
84
217
190
76
211
197
76
211
197
76
211
197
76
211
197
77
212
196
124
201
152
228
120
21
132
45
3
173
201
85
145
181
149
30
74
205
5
57
194
5
57
193
67
117
198
146
171
132
149
180
137
148
185
145
119
231
153
150
208
118
137
164
179
144
106
27
151
165
97
94
132
170
1
30
154
0
17
123
0
14
115
0
12
109
0
8
92
0
8
91
0
8
91
0
6
84
0
3
65
0
3
64
0
3
64
0
3
64
0
3
64
0
6
83
0
9
95
0
14
115
46
62
152
138
164
137
117
182
160
70
97
180
102
146
178
132
235
146
124
231
155
100
227
175
89
220
186
84
217
190
82
215
192
119
206
173
180
172
128
100
164
204
56
138
219
184
205
104
181
201
81
160
58
7
209
61
5
228
86
11
236
103
15
186
113
31
152
183
120
91
222
184
82
215
192
76
211
197
74
209
199
72
207
201
72
207
201
74
209
199
103
208
177
214
138
49
225
176
48
190
193
102
79
131
211
11
84
215
21
85
212
116
145
180
158
211
124
125
233
155
121
235
157
102
229
173
105
230
171
132
213
155
98
201
190
177
174
122
146
213
138
132
218
157
113
142
156
9
40
153
0
16
121
0
14
115
0
12
109
0
8
92
0
8
91
0
8
91
0
7
84
0
3
64
0
3
64
0
3
64
0
3
64
0
8
90
0
13
112
1
23
140
104
159
162
122
211
169
136
213
150
137
157
171
150
190
141
175
129
55
208
117
41
153
181
120
89
220
186
77
212
196
75
210
198
69
204
203
59
191
211
46
173
221
143
173
163
211
199
66
107
60
10
100
11
0
92
12
0
166
53
4
233
107
17
241
128
23
181
150
78
126
216
162
80
214
194
72
207
201
68
203
204
68
203
204
68
203
204
66
201
205
65
199
207
97
196
190
116
168
174
75
155
216
21
120
227
56
118
219
137
168
166
159
226
113
142
238
136
129
237
148
118
234
159
108
231
168
100
227
175
92
222
183
84
217
190
92
222
183
101
228
174
108
229
169
143
183
138
1
41
172
1
24
143
1
19
130
0
16
120
0
13
111
0
8
93
0
8
91
0
8
91
0
5
79
0
3
64
0
3
64
0
3
67
0
10
100
59
91
147
100
162
172
153
177
117
128
210
162
81
215
191
98
189
194
168
131
36
42
0
0
168
75
9
213
136
51
87
213
187
75
210
198
70
205
203
68
203
204
62
196
209
82
199
199
218
166
59
185
134
32
35
0
0
35
0
0
35
0
0
35
0
0
187
83
11
241
144
28
215
135
29
151
177
123
75
210
198
68
203
204
68
203
204
68
203
204
65
200
206
61
194
210
60
193
210
53
184
216
44
171
222
34
152
226
30
145
227
152
179
158
176
224
98
171
232
108
158
211
104
148
200
106
146
220
130
113
233
163
98
226
178
93
223
182
84
217
190
88
220
187
97
225
178
114
233
163
135
226
140
86
103
176
2
33
161
1
27
148
1
23
142
1
23
139
0
14
119
0
9
97
0
8
91
0
8
90
0
4
68
0
3
64
0
3
67
24
20
107
116
148
150
123
212
165
143
127
50
128
189
180
79
213
194
144
194
149
183
85
11
36
0
0
150
100
21
201
169
98
72
200
201
68
203
204
68
203
204
69
204
203
72
207
201
129
186
146
236
154
34
166
90
14
35
0
0
35
0
0
35
0
0
35
0
0
144
66
7
239
157
35
221
145
41
104
212
174
70
205
203
68
203
204
68
203
204
65
200
206
61
194
210
61
194
210
59
191
212
53
184
216
48
175
220
45
173
221
148
174
150
205
207
72
188
193
70
146
96
27
180
45
3
209
66
6
202
93
25
147
179
100
105
227
172
90
221
185
84
217
190
84
217
190
99
221
180
182
141
70
162
198
98
42
92
196
39
69
185
96
116
178
105
138
160
102
145
163
72
101
158
0
17
123
0
11
103
0
8
91
0
6
80
0
3
64
0
3
65
0
9
96
0
20
134
104
149
158
91
136
179
157
189
136
94
223
181
114
225
167
180
163
87
156
142
59
188
190
88
105
170
201
57
189
213
67
202
205
72
207
201
76
211
197
78
212
195
148
174
127
239
138
27
202
94
14
34
0
0
35
0
0
35
0
0
35
0
0
160
98
18
233
175
45
204
149
54
128
191
167
65
199
207
62
196
209
61
194
210
61
194
210
61
194
210
61
194
210
61
193
210
56
187
214
56
188
214
123
178
164
218
183
52
213
182
54
95
51
6
84
6
0
96
12
0
168
48
3
232
100
14
219
103
20
122
220
154
87
219
188
79
213
194
77
212
196
80
214
194
181
171
131
139
166
178
64
121
214
142
197
157
134
228
144
121
227
157
135
189
151
120
188
158
0
26
150
0
17
123
0
12
107
0
8
89
0
3
64
0
3
64
0
7
87
0
12
106
0
17
123
1
27
149
116
181
162
133
201
155
120
222
159
130
233
149
149
213
144
86
134
205
115
159
199
175
175
142
82
211
193
77
211
196
78
212
195
85
218
189
124
221
157
216
106
25
234
104
15
164
48
3
80
7
0
74
4
0
68
19
1
209
171
49
224
188
54
132
169
146
58
190
212
56
188
213
60
193
210
61
194
210
61
194
210
61
194
210
61
194
210
61
195
210
64
197
208
121
193
179
190
145
73
233
176
46
183
119
26
35
0
0
35
0
0
35
0
0
35
0
0
192
86
11
241
137
26
162
161
108
80
214
194
76
211
197
74
208
199
68
203
204
58
190
212
67
170
214
183
189
112
159
167
73
177
173
93
111
224
163
94
224
181
161
203
129
75
113
185
100
135
156
10
36
132
0
10
98
0
4
68
0
3
64
0
6
79
0
8
91
0
11
104
0
17
123
50
90
161
115
155
155
114
156
162
109
138
170
54
73
185
17
78
203
164
197
108
187
109
40
105
219
175
84
217
190
84
217
190
89
220
186
100
227
176
151
179
98
208
87
18
213
69
7
188
45
3
141
68
15
180
175
61
207
210
73
175
178
119
63
176
215
48
176
219
53
184
216
58
191
212
61
194
210
61
194
210
64
198
207
67
202
205
68
203
204
69
204
203
95
217
183
210
148
52
238
160
36
161
82
12
35
0
0
35
0
0
35
0
0
35
0
0
154
77
10
239
155
34
145
177
130
74
208
199
71
205
202
68
203
204
68
203
204
66
201
206
189
167
115
170
121
28
45
1
0
175
74
8
160
190
139
81
214
193
104
193
189
145
142
79
129
215
161
126
148
147
26
34
114
0
4
70
0
3
64
0
3
67
0
8
90
0
8
91
0
10
97
20
30
119
0
22
145
1
25
145
1
28
151
2
33
162
46
87
183
148
220
127
120
232
157
98
226
178
88
220
187
84
217
190
92
222
183
97
225
179
113
233
164
143
214
126
150
188
99
157
198
95
171
225
103
179
229
100
167
187
132
46
152
224
35
153
226
43
169
222
52
182
217
60
192
211
61
194
210
64
198
208
68
203
204
68
203
204
68
203
204
73
208
200
140
191
143
210
125
25
241
146
30
195
92
13
35
0
0
35
0
0
35
0
0
35
0
0
164
112
24
222
167
47
113
196
186
63
196
209
68
203
204
69
204
203
74
209
199
82
213
193
202
151
75
177
86
12
35
0
0
151
111
26
127
186
180
79
213
195
123
210
167
158
170
98
110
172
176
76
113
151
0
11
104
0
4
70
0
3
64
0
3
64
0
5
78
0
8
91
0
8
91
0
9
93
0
13
111
0
16
122
1
19
131
1
24
143
0
36
168
133
189
150
116
226
164
100
227
175
93
223
182
84
217
190
91
222
184
99
227
176
107
231
169
117
234
160
129
237
148
142
238
136
159
234
120
153
180
145
67
123
214
21
119
227
50
151
224
105
171
191
91
193
193
64
198
207
65
200
206
68
203
204
68
203
204
68
203
204
70
205
202
79
213
195
127
212
162
173
159
86
241
128
23
235
111
18
160
51
4
74
7
0
84
7
0
83
13
0
207
187
59
170
175
137
46
175
220
57
189
213
68
203
204
74
209
199
76
211
197
88
218
188
154
185
124
215
102
23
173
94
34
163
192
118
123
156
184
142
202
142
105
221
176
120
180
156
1
27
148
0
15
116
0
9
94
0
3
65
0
3
64
0
3
64
0
3
64
0
6
84
0
8
91
0
8
91
0
8
92
0
12
109
0
14
115
0
16
122
0
26
149
110
141
154
136
210
159
133
222
148
166
181
127
88
208
194
124
212
160
104
229
172
103
229
173
117
234
160
121
235
156
156
222
122
134
160
159
28
98
212
11
85
216
48
118
221
180
184
118
219
181
52
205
142
61
118
202
172
73
208
200
71
206
201
71
206
202
73
208
200
76
211
197
81
215
193
90
221
185
152
193
129
186
109
25
235
104
15
230
88
11
209
61
5
166
34
1
175
180
70
192
213
87
72
147
211
75
156
215
168
175
143
112
205
175
81
215
193
83
216
191
88
219
187
102
225
174
125
228
151
135
235
143
119
166
164
69
102
186
123
189
155
147
170
134
64
88
155
0
16
120
0
10
98
0
7
86
0
3
64
0
3
64
0
3
64
0
3
64
0
3
65
0
7
84
0
8
91
0
8
91
0
8
92
0
12
109
0
14
115
0
17
123
1
30
155
90
135
171
159
179
100
146
90
18
144
166
176
161
199
108
119
234
157
144
196
148
152
191
136
149
186
127
97
135
190
2
64
198
6
58
196
8
70
205
134
169
169
179
213
90
117
48
4
236
127
23
130
189
141
77
212
196
76
211
197
76
211
197
76
211
197
76
211
197
83
216
191
86
218
189
128
215
159
141
215
135
170
124
61
179
148
65
165
144
64
163
208
101
166
233
114
142
175
167
17
104
223
152
182
161
188
120
29
171
177
115
90
221
185
85
218
189
86
219
188
96
225
179
104
229
172
138
217
145
55
87
176
2
32
158
15
40
150
0
27
149
5
32
121
0
9
95
0
8
91
0
5
77
0
3
64
0
2
58
0
3
64
0
3
64
0
3
64
0
3
64
0
6
80
0
8
91
0
8
91
0
8
92
0
12
109
0
14
115
1
20
132
0
40
169
132
181
168
152
178
104
102
134
182
102
140
174
117
178
164
138
161
115
68
113
191
15
56
183
33
56
175
3
42
176
4
45
180
3
62
199
147
193
144
153
230
121
182
111
45
194
133
55
107
226
171
84
217
191
77
212
196
76
211
197
76
211
197
77
212
196
84
217
190
84
217
190
95
224
180
103
229
172
123
228
154
127
236
150
133
235
143
137
238
141
157
215
125
71
110
203
9
75
209
139
190
155
153
210
114
126
225
153
98
226
177
93
223
182
82
216
192
132
209
157
126
227
153
137
152
152
2
32
158
1
20
134
0
17
124
0
13
109
0
8
93
0
8
91
0
7
88
0
3
65
0
3
64
0
1
47
0
3
64
0
3
64
0
3
64
0
3
64
0
3
64
0
4
72
0
7
88
0
8
91
0
8
92
0
12
106
0
15
119
21
57
150
125
182
154
128
188
160
35
67
171
1
32
160
2
36
165
76
113
169
17
47
168
1
31
157
1
30
156
1
31
158
3
37
169
45
65
186
145
192
140
131
237
146
128
231
149
113
233
164
95
224
180
87
219
187
83
216
191
78
213
195
76
211
197
77
212
196
84
217
190
84
217
190
93
223
182
99
227
176
103
229
172
113
233
164
119
235
158
137
238
142
128
160
164
5
57
194
5
52
189
96
132
183
139
220
134
116
234
161
103
229
173
132
212
148
182
171
130
129
164
173
110
157
166
50
78
166
1
18
128
0
14
115
0
12
109
0
8
92
0
8
91
0
8
90
0
4
71
0
3
64
0
3
64
0
0
34
0
3
61
0
3
64
0
3
64
0
3
64
0
3
64
0
3
64
0
3
65
0
6
79
0
8
90
0
8
91
0
11
101
0
16
121
64
106
154
1
27
149
1
22
139
1
20
134
1
19
131
1
19
131
1
21
137
1
22
139
1
23
140
1
25
146
1
30
156
4
47
180
131
166
144
137
226
145
112
232
165
103
229
172
94
224
181
90
221
185
84
217
190
83
216
191
76
211
197
76
211
197
82
216
192
87
219
188
93
223
182
95
224
180
100
228
175
110
232
166
118
227
159
140
163
158
39
70
190
3
39
172
2
36
167
50
58
172
104
148
171
153
168
104
127
217
162
152
211
125
127
69
15
126
178
160
2
33
161
1
19
131
0
14
115
0
12
109
0
8
92
0
8
91
0
8
91
0
5
75
0
3
64
0
3
64
0
3
64
0
0
33
0
1
47
0
3
64
0
3
64
0
3
64
0
3
64
0
3
64
0
3
64
0
3
64
0
4
68
0
6
84
0
8
91
0
9
93
0
12
106
0
15
117
0
14
116
0
14
115
0
14
115
0
14
115
0
14
115
0
16
121
1
20
133
1
21
137
1
22
139
19
52
166
111
144
166
133
219
150
114
233
163
101
228
174
94
223
181
93
223
182
88
219
187
84
217
190
76
211
197
75
210
198
81
215
193
92
222
183
94
224
181
94
224
181
93
223
182
149
204
126
145
216
138
116
154
155
1
39
172
1
30
155
1
28
152
1
29
153
0
35
167
112
154
162
56
91
175
91
108
177
132
198
165
119
181
165
0
22
142
0
15
117
0
12
108
0
8
92
0
8
91
0
8
89
0
4
72
0
3
64
0
3
64
0
3
64
0
2
59
0
0
33
0
0
33
0
2
59
0
3
64
0
3
64
0
3
64
0
3
64
0
3
64
0
3
64
0
3
64
0
3
64
0
4
73
0
7
88
0
8
91
0
8
93
0
11
102
0
13
110
0
14
115
0
14
115
0
14
115
0
14
115
0
14
115
1
18
127
1
21
137
1
25
145
6
52
178
145
202
144
176
159
88
102
221
174
94
224
181
98
226
177
103
228
174
114
212
165
97
208
191
65
199
207
156
188
145
129
214
151
104
229
171
106
226
168
157
192
156
131
164
177
75
101
180
2
38
169
1
25
144
1
21
137
1
21
137
1
20
134
1
19
131
1
21
136
1
24
143
1
26
147
79
110
161
77
118
154
0
16
121
0
11
103
0
8
91
0
8
91
0
6
83
0
3
67
0
3
64
0
3
64
0
3
64
0
3
64
0
1
48
0
0
33
0
0
33
0
1
40
0
3
63
0
3
64
0
3
64
0
3
64
0
3
64
0
3
64
0
3
64
0
3
64
0
3
64
0
3
66
0
6
81
0
8
91
0
8
91
0
8
91
0
8
93
0
10
99
0
12
106
0
13
112
0
14
115
0
14
115
0
17
123
1
21
138
1
35
164
127
168
164
152
107
35
134
175
167
108
229
170
107
230
169
164
189
114
225
124
26
192
166
105
54
175
216
180
156
88
157
194
113
114
233
162
133
230
146
146
79
23
146
176
137
1
42
174
1
25
145
1
21
137
1
19
130
0
15
119
0
14
115
0
14
115
0
14
115
0
14
115
0
16
120
0
16
122
0
13
110
0
9
95
0
8
91
0
7
86
0
4
72
0
3
64
0
3
64
0
3
64
0
3
64
0
3
64
0
3
61
0
0
34
0
0
33
0
0
33
0
0
33
0
1
49
0
3
64
0
3
64
0
3
64
0
3
64
0
3
64
0
3
64
0
3
64
0
3
64
0
3
64
0
3
64
0
4
72
0
7
88
0
8
91
0
8
91
0
8
91
0
8
91
0
8
91
0
9
96
0
12
106
0
14
115
0
16
122
2
29
151
117
177
163
104
158
169
119
172
167
120
232
154
120
235
157
189
144
70
138
48
3
164
122
30
141
171
174
101
148
196
139
198
142
144
197
130
117
173
168
118
160
169
116
193
158
2
29
156
1
20
134
0
16
121
0
14
115
0
14
115
0
14
115
0
14
115
0
13
112
0
12
108
0
11
101
0
9
93
0
8
91
0
7
86
0
5
73
0
3
64
0
3
64
0
3
64
0
3
64
0
3
64
0
3
64
0
3
64
0
1
47
0
0
33
0
0
33
0
0
33
0
0
33
0
0
33
0
2
54
0
3
64
0
3
64
0
3
64
0
3
64
0
3
64
0
3
64
0
3
64
0
3
64
0
3
64
0
3
64
0
3
66
0
6
83
0
8
91
0
8
91
0
8
91
0
8
91
0
8
91
0
8
91
0
9
95
0
13
109
0
16
121
1
26
145
1
30
155
22
56
173
122
151
158
140
216
139
166
188
91
52
8
0
106
19
0
159
208
128
16
71
201
7
47
182
65
97
172
1
33
161
0
31
158
25
58
157
0
18
128
0
14
116
0
13
113
0
12
107
0
11
102
0
9
97
0
8
92
0
8
91
0
8
91
0
8
91
0
7
87
0
5
75
0
3
64
0
3
64
0
3
64
0
3
64
0
3
64
0
3
64
0
3
64
0
3
64
0
2
58
0
0
33
0
0
33
0
0
33
0
0
33
0
0
33
0
0
33
0
0
33
0
2
55
0
3
64
0
3
64
0
3
64
0
3
64
0
3
64
0
3
64
0
3
64
0
3
64
0
3
64
0
3
64
0
3
64
0
5
74
0
8
89
0
8
91
0
8
91
0
8
91
0
8
91
0
8
91
0
8
91
0
11
105
0
15
118
1
20
133
1
22
140
2
34
162
37
67
187
106
146
190
180
159
113
174
146
80
141
226
136
61
92
181
1
31
157
1
23
141
1
21
137
1
18
129
0
15
117
0
12
108
0
10
97
0
8
91
0
8
91
0
8
91
0
8
91
0
8
91
0
8
91
0
8
89
0
5
77
0
3
65
0
3
64
0
3
64
0
3
64
0
3
64
0
3
64
0
3
64
0
3
64
0
3
64
0
3
63
0
0
38
0
0
33
0
0
33
0
0
33
0
0
33
0
0
33
0
0
33
0
0
33
0
0
33
0
2
55
0
3
64
0
3
64
0
3
64
0
3
64
0
3
64
0
3
64
0
3
64
0
3
64
0
3
64
0
3
64
0
3
64
0
3
67
0
7
84
0
8
91
0
8
91
0
8
91
0
8
91
0
8
91
0
8
91
0
11
103
0
14
115
1
18
127
1
23
141
17
60
172
147
196
130
90
214
186
101
227
175
130
209
152
0
40
173
1
23
141
1
18
129
0
15
118
0
13
112
0
10
97
0
8
91
0
8
91
0
8
91
0
8
91
0
8
91
0
8
91
0
8
91
0
6
80
0
3
66
0
3
64
0
3
64
0
3
64
0
3
64
0
3
64
0
3
64
0
3
64
0
3
64
0
3
64
0
3
64
0
1
45
0
0
33
0
0
33
0
0
33
0
0
33
0
0
33
0
0
33
0
0
33
0
0
33
0
0
33
0
0
33
0
2
51
0
3
64
0
3
64
0
3
64
0
3
64
0
3
64
0
3
64
0
3
64
0
3
64
0
3
64
0
3
64
0
3
64
0
3
64
0
5
75
0
8
89
0
8
91
0
8
91
0
8
91
0
8
91
0
8
91
0
11
105
0
14
115
0
16
122
6
47
159
142
208
149
146
203
150
136
198
164
121
159
153
34
62
149
0
16
120
0
14
115
0
12
109
0
8
93
0
8
91
0
8
91
0
8
91
0
8
91
0
8
91
0
8
91
0
7
85
0
4
69
0
3
64
0
3
64
0
3
64
0
3
64
0
3
64
0
3
64
0
3
64
0
3
64
0
3
64
0
3
64
0
3
64
0
1
49
0
0
33
0
0
33
0
0
33
0
0
33
0
0
33
0
0
33
0
0
33
0
0
33
0
0
33
0
0
33
0
0
33
0
0
33
0
1
44
0
3
62
0
3
64
0
3
64
0
3
64
0
3
64
0
3
64
0
3
64
0
3
64
0
3
64
0
3
64
0
3
64
0
3
64
0
3
66
0
6
80
0
8
91
0
8
91
0
8
91
0
8
91
0
8
91
0
11
104
0
14
115
0
17
125
48
80
162
123
154
134
100
147
164
1
26
145
0
15
119
0
14
115
0
11
105
0
8
91
0
8
91
0
8
91
0
8
91
0
8
91
0
8
91
0
7
86
0
4
72
0
3
64
0
3
64
0
3
64
0
3
64
0
3
64
0
3
64
0
3
64
0
3
64
0
3
64
0
3
64
0
3
64
0
3
64
0
1
50
0
0
33
0
0
33
0
0
33
0
0
33
0
0
33
0
0
33
0
0
33
0
0
33
0
0
33
0
0
33
0
0
33
0
0
33
0
0
33
0
0
33
0
0
36
0
2
54
0
3
64
0
3
64
0
3
64
0
3
64
0
3
64
0
3
64
0
3
64
0
3
64
0
3
64
0
3
64
0
3
64
0
3
64
0
4
68
0
6
82
0
8
90
0
8
91
0
8
91
0
8
91
0
10
100
0
14
113
1
18
128
92
142
156
39
75
155
0
16
120
0
13
112
0
10
99
0
8
91
0
8
91
0
8
91
0
8
91
0
8
91
0
7
86
0
5
73
0
3
64
0
3
64
0
3
64
0
3
64
0
3
64
0
3
64
0
3
64
0
3
64
0
3
64
0
3
64
0
3
64
0
3
64
0
3
63
0
1
46
0
0
33
0
0
33
0
0
33
0
0
33
0
0
33
0
0
33
0
0
33
0
0
33
0
0
33
0
0
33
0
0
33
0
0
33
0
0
33
0
0
33
0
0
33
0
0
33
0
0
33
0
1
41
0
2
57
0
3
64
0
3
64
0
3
64
0
3
64
0
3
64
0
3
64
0
3
64
0
3
64
0
3
64
0
3
64
0
3
64
0
3
64
0
3
66
0
5
78
0
7
86
0
8
91
0
8
91
0
8
92
0
10
100
0
12
106
0
11
105
0
10
99
0
8
91
0
8
91
0
8
91
0
8
91
0
8
89
0
6
81
0
4
70
0
3
64
0
3
64
0
3
64
0
3
64
0
3
64
0
3
64
0
3
64
0
3
64
0
3
64
0
3
64
0
3
64
0
3
64
0
3
64
0
2
60
0
1
40
0
0
33
0
0
33
0
0
33
0
0
33
0
0
33
0
0
33
0
0
33
0
0
33
0
0
33
0
0
33
0
0
33
0
0
33
0
0
33
0
0
33
0
0
33
0
0
33
0
0
33
0
0
33
0
0
33
0
0
33
0
1
41
0
2
55
0
3
63
0
3
64
0
3
64
0
3
64
0
3
64
0
3
64
0
3
64
0
3
64
0
3
64
0
3
64
0
3
64
0
3
64
0
3
64
0
3
67
0
5
74
0
6
80
0
6
83
0
7
86
0
7
86
0
7
86
0
7
84
0
6
81
0
5
76
0
4
70
0
3
64
0
3
64
0
3
64
0
3
64
0
3
64
0
3
64
0
3
64
0
3
64
0
3
64
0
3
64
0
3
64
0
3
64
0
3
64
0
3
64
0
3
63
0
1
51
0
0
34
0
0
33
0
0
33
0
0
33
0
0
33
0
0
33
0
0
33
0
0
33
0
0
33
0
0
33
0
0
33
0
0
33
0
0
33
0
0
33
0
0
33
0
0
33
0
0
33
0
0
33
0
0
33
0
0
33
0
0
33
0
0
33
0
0
33
0
0
33
0
0
36
0
1
48
0
2
57
0
3
64
0
3
64
0
3
64
0
3
64
0
3
64
0
3
64
0
3
64
0
3
64
0
3
64
0
3
64
0
3
64
0
3
64
0
3
64
0
3
64
0
3
64
0
3
64
0
3
64
0
3
64
0
3
64
0
3
64
0
3
64
0
3
64
0
3
64
0
3
64
0
3
64
0
3
64
0
3
64
0
3
64
0
3
64
0
3
64
0
3
64
0
3
64
0
3
64
0
3
63
0
2
54
0
0
37
0
0
33
0
0
33
0
0
33
0
0
33
0
0
33
0
0
33
0
0
33
0
0
33
0
0
33
0
0
33
0
0
33
0
0
33
0
0
33
0
0
33
0
0
33
0
0
33
0
0
33
0
0
33
0
0
33
0
0
33
0
0
33
0
0
33
0
0
33
0
0
33
0
0
33
0
0
33
0
0
33
0
0
33
0
0
36
0
1
45
0
2
53
0
2
59
0
3
64
0
3
64
0
3
64
0
3
64
0
3
64
0
3
64
0
3
64
0
3
64
0
3
64
0
3
64
0
3
64
0
3
64
0
3
64
0
3
64
0
3
64
0
3
64
0
3
64
0
3
64
0
3
64
0
3
64
0
3
64
0
3
64
0
3
64
0
3
64
0
3
64
0
3
64
0
3
64
0
2
59
0
1
49
0
0
36
0
0
33
0
0
33
0
0
33
0
0
33
0
0
33
0
0
33
0
0
33
0
0
33
0
0
33
0
0
33
0
0
33
0
0
33
0
0
33
0
0
33
0
0
33
0
0
33
0
0
33
0
0
33
0
0
33
0
0
33
0
0
33
0
0
33
0
0
33
0
0
33
0
0
33
0
0
33
0
0
33
0
0
33
0
0
33
0
0
33
0
0
33
0
0
33
0
0
33
0
0
33
0
0
34
0
1
42
0
1
47
0
2
53
0
2
56
0
2
60
0
3
63
0
3
64
0
3
64
0
3
64
0
3
64
0
3
64
0
3
64
0
3
64
0
3
64
0
3
64
0
3
64
0
3
64
0
3
64
0
3
64
0
3
64
0
3
64
0
3
64
0
3
60
0
2
55
0
1
48
0
0
38
0
0
33
0
0
33
0
0
33
0
0
33
0
0
33
0
0
33
0
0
33
0
0
33
0
0
33
0
0
33
0
0
33
0
0
33
0
0
33
0
0
33
0
0
33
